<?xml version="1.0" encoding="utf-8"?>
<!-- Generator: Adobe Illustrator 25.2.0, SVG Export Plug-In . SVG Version: 6.00 Build 0)  -->
<svg version="1.1" width="64" height="64" baseProfile="tiny" id="Layer_1" xmlns="http://www.w3.org/2000/svg" xmlns:xlink="http://www.w3.org/1999/xlink"
	 x="0px" y="0px" viewBox="0 0 45 45" overflow="visible" xml:space="preserve">
<path fill="#316BDE" d="M37.9,0H6.6C2.8,0-0.3,3.1-0.3,6.8v31.3c0,0.2,0,0.5,0,0.7l12.5,6L11.7,45h26.2c3.8,0,6.8-3.1,6.8-6.8V6.8
	C44.7,3.1,41.7,0,37.9,0z"/>
<g>
	<path fill="#FFFFFF" d="M12.5,4.4C16.1,6.4,19,8.4,23,10.5l-0.5,0.2c2.6-1.1,2.5-1,7.7-2.8L30.5,8c-0.1,0-7.5,3.5-7.6,3.6
		c-3.6-2.3-7.1-4.7-10.7-7.1L12.5,4.4z"/>
	<path fill="#FFFFFF" d="M22.8,12.7l-0.5-0.3c-2.3-1.5-4.6-3-6.9-4.6c-1.3-0.8-2.5-1.7-3.8-2.5L9.8,4.1l2.8-0.8l0.4,0.2
		c1.9,1,3.6,2,5.4,3.1c1.5,0.9,3,1.8,4.7,2.8c1.6-0.7,2.2-0.9,5.7-2l1.5-0.5L33,7.9l-2.1,1c-0.1,0-7.5,3.5-7.6,3.6L22.8,12.7z"/>
</g>
<path fill="#FFFFFF" d="M32.6,19.4c0-4.4,0-4.1-0.7-7.7l-9.1,4c-4.5-3.8-8.6-6.5-12.5-8.2C7.1,6,3.7,5.2,0.2,5c0,0.1,0,0.1-0.1,0.2
	C4.9,5.5,8.7,7,11.4,9.6c3.2,3,4.8,7.4,4.8,13c0,5-1.6,8.8-4.8,11.6C8.6,36.7,4.8,38,0,38.4c0,0.2,0,0.4,0,0.5l8.7,4.3
	c1.2,0.6,2.3,1.2,3.5,1.8c4.4-1.2,8.2-3,11.4-5.4C29.6,34.8,32.6,28.1,32.6,19.4z"/>
</svg>
