<?xml version="1.0" encoding="utf-8"?>
<!-- Generator: Adobe Illustrator 25.2.0, SVG Export Plug-In . SVG Version: 6.00 Build 0)  -->
<svg version="1.1" id="Layer_1" xmlns="http://www.w3.org/2000/svg" xmlns:xlink="http://www.w3.org/1999/xlink" x="0px" y="0px"
	 viewBox="0 0 220.3 70" style="enable-background:new 0 0 220.3 70;" xml:space="preserve">
<style type="text/css">
	.st0{display:none;fill:#316BDE;}
	.st1{display:none;}
	.st2{display:inline;fill:#FFFFFF;}
	.st3{display:none;fill:#FFFFFF;}
	.st4{fill:#FE3A5E;}
	.st5{fill:#316BDE;}
	.st6{display:none;fill:#03C4A1;}
	.st7{display:inline;fill:#8D29ED;}
	.st8{display:inline;}
	.st9{fill:#8D29ED;}
	.st10{fill:#FFFFFF;}
</style>
<rect y="0" width="220.3" height="70"/>
<path class="st0" d="M53.9,0H9.4C4,0-0.4,4.4-0.4,9.7v44.5c0,0.3,0,0.7,0,1l17.8,8.5L16.6,64h37.3c5.4,0,9.7-4.4,9.7-9.7V9.7
	C63.6,4.4,59.3,0,53.9,0z"/>
<g class="st1">
	<path class="st2" d="M18.5,5.4c5.1,2.8,9.2,5.7,14.9,8.7l-0.7,0.3c3.7-1.6,3.6-1.4,11-4l0.4,0.1c-0.1,0-10.7,5-10.8,5.1
		c-5.1-3.3-10.1-6.7-15.2-10.1L18.5,5.4z"/>
	<path class="st2" d="M33.1,17.2l-0.7-0.4c-3.3-2.1-6.5-4.3-9.8-6.5c-1.8-1.1-3.6-2.4-5.4-3.6L14.6,5l4-1.1l0.6,0.3
		c2.7,1.4,5.1,2.8,7.7,4.4c2.1,1.3,4.3,2.6,6.7,4c2.3-1,3.1-1.3,8.1-2.8l2.1-0.7l3.8,1.4l-3,1.4c-0.1,0-10.7,5-10.8,5.1L33.1,17.2z"
		/>
</g>
<path class="st3" d="M46.4,27.6c0-6.3,0-5.8-1-11l-12.9,5.7c-6.4-5.4-12.2-9.2-17.8-11.7C10.1,8.5,5.3,7.4,0.3,7.1
	c0,0.1,0,0.1-0.1,0.3c6.8,0.4,12.2,2.6,16,6.3C20.8,18,23,24.2,23,32.2c0,7.1-2.3,12.5-6.8,16.5c-4,3.6-9.4,5.4-16.2,6
	c0,0.3,0,0.6,0,0.7l12.4,6.1c1.7,0.9,3.3,1.7,5,2.6c6.3-1.7,11.7-4.3,16.2-7.7C42.1,49.5,46.4,40,46.4,27.6z"/>
<g id="Layer_1_2_">
	<g id="Layer_2_2_">
	</g>
	<g id="Layer_1_1_">
		<path class="st4" d="M-23.8-53"/>
		<polygon class="st5" points="52.3,2 32,60.7 45.3,60.7 65.6,2 		"/>
		<polygon class="st6" points="41.8,-2.8 25.2,45 36.1,45 52.6,-2.8 		"/>
		<path class="st4" d="M52.7,4.3"/>
		<g class="st1">
			<path class="st7" d="M40,33.5v-4.6c0.1-1.3-0.3-2.5-1-3.5c-0.9-0.8-2.2-1.2-3.4-1c-1.5,0-2.9,0.4-4.1,1c-1.3,0.8-2.7,1.5-4,2.4
				c-1.7,1.1-3.6,2.1-5.4,2.9c-2,0.8-4,1.2-6.1,1.2c-3.4,0.3-6.8-1-9-3.6c-2.2-3.5-3.1-7.5-2.8-11.7v-5.5h11v4.6
				c-0.1,1.2,0.2,2.4,0.8,3.5c0.8,0.8,1.7,1.2,2.8,1c1.3,0,2.6-0.4,3.7-1.1c1.2-0.8,2.4-1.5,3.8-2.4c1.7-1.1,3.6-2.2,5.5-2.9
				c2-0.8,4.1-1.2,6.3-1.2c3.8-0.3,7.4,1,10.1,3.6c2.4,3.4,3.5,7.5,3.1,11.7v5.5H40C40,33.4,40,33.5,40,33.5z"/>
		</g>
		<polygon class="st5" points="30.9,2 10.6,60.7 24,60.7 44.3,2 		"/>
		<g class="st1">
			<g class="st8">
				<path class="st9" d="M36.6,12.7l-4,11.7c0.4-0.1,0.8-0.1,1.3-0.1c1.2-0.1,2.4,0.3,3.4,1c0.8,1,1.2,2.2,1,3.5v4.6h1.8l6-17.3
					C43.5,13.7,40.1,12.4,36.6,12.7z"/>
				<path class="st10" d="M40.3,33.9h-2.4v-5c0.1-1.2-0.3-2.4-1-3.3c-0.8-0.7-2-1-3.1-0.9c-0.4,0-0.8,0.1-1.3,0.1l-0.6,0.1l4.3-12.6
					h0.2c3.6-0.2,7.1,1,9.7,3.6l0.1,0.1L40.3,33.9z M38.6,33.2h1.2l5.8-17c-2.4-2.2-5.5-3.4-8.8-3.3L33,24c0.3,0,0.6-0.1,0.8-0.1
					c1.3-0.1,2.6,0.3,3.6,1.2c0.8,1,1.3,2.4,1.2,3.8L38.6,33.2L38.6,33.2z"/>
			</g>
		</g>
		<g>
			<path class="st10" d="M19.2,29.8c-0.3-0.3-0.8-0.5-1-0.8c-0.8-1.3-1.3-2.8-1-4.3v-5.7H3.7v6.8c-0.4,5,0.7,10,3.4,14.2
				c1.9,2.2,4.5,3.6,7.3,4.2L19.2,29.8z"/>
		</g>
		<path class="st10" d="M57.8,25.3c-3.2-3.2-7.8-4.8-12.4-4.5c-1.8,0-3.7,0.3-5.5,0.8L34,38.5c1-0.6,2.2-1.3,3.3-1.9
			c1.5-0.8,3.3-1.3,5.1-1.3c1.5-0.1,3.1,0.3,4.2,1.3c1,1.1,1.5,2.7,1.3,4.3v5.5h13.6v-6.8C62,34.5,60.8,29.5,57.8,25.3z"/>
	</g>
	<g>
		<g>
			<path class="st10" d="M107.2,45.4h-8.1l-7.6-12.4l-3.8,4.1v8.3h-8.1V4.3h8.1v24.4l10.5-11.8h8.7L96.4,28.1L107.2,45.4z"/>
			<path class="st10" d="M124.1,16.2c2.4,0,4.5,0.5,6.2,1.5c1.8,0.9,3.1,2.3,4.1,4c0.9,1.7,1.6,3.6,1.8,5.5h-6.7
				c-0.1-0.7-0.4-1.5-0.8-2.3c-0.4-0.7-0.9-1.4-1.7-1.9c-0.7-0.5-1.7-0.7-2.7-0.7c-1.9,0-3.5,0.7-4.6,2.2c-1.2,1.5-1.8,3.7-1.8,6.6
				c0,2.8,0.5,5,1.7,6.6c1.2,1.7,2.7,2.4,4.8,2.4c1,0,2-0.3,2.7-0.8c0.7-0.5,1.3-1.2,1.7-1.9c0.4-0.7,0.6-1.5,0.7-2.1h6.6
				c-0.1,2-0.7,3.8-1.7,5.3c-1,1.6-2.4,2.8-4.2,3.8c-1.8,0.9-3.8,1.4-6.2,1.4c-2.6,0-5-0.6-7.1-1.8c-2.1-1.2-3.8-2.8-4.9-5.1
				c-1.2-2.2-1.8-4.8-1.8-7.9c0-2.9,0.5-5.5,1.7-7.9c1.2-2.3,2.7-4,4.8-5.2C118.8,16.8,121.2,16.2,124.1,16.2z"/>
			<path class="st10" d="M150.8,45.9c-2.1,0-3.8-0.2-5-0.7c-1.3-0.5-2.2-1.2-2.7-2c-0.6-0.8-0.9-1.8-1.2-2.7c-0.2-1-0.2-2-0.2-3V4.3
				h8v32.1c0,1,0.2,1.9,0.6,2.5c0.4,0.6,1.3,1,2.5,1.2l1.4,0.1v5c-0.5,0.2-1.2,0.3-1.7,0.5C151.9,45.8,151.4,45.9,150.8,45.9z"/>
		</g>
	</g>
</g>
<g>
	<g>
		<path class="st10" d="M86.1,68c-0.5,0-0.9-0.1-1.3-0.2c-0.4-0.1-0.7-0.3-0.9-0.5c-0.3-0.2-0.5-0.5-0.7-0.8
			c-0.2-0.3-0.3-0.6-0.4-0.9l-0.4,2.2h-2.5V52.5h3.5v6c0.1-0.3,0.3-0.5,0.5-0.7s0.5-0.3,0.7-0.5c0.3-0.1,0.6-0.2,0.9-0.3
			c0.3-0.1,0.6-0.1,0.9-0.1c1.3,0,2.3,0.5,3.1,1.5s1.1,2.3,1.1,4c0,1.1-0.2,2.1-0.5,3s-0.9,1.5-1.5,2C87.9,67.8,87.1,68,86.1,68z
			 M85.3,65.5c0.6,0,1-0.2,1.4-0.7c0.4-0.5,0.6-1.3,0.6-2.4c0-1.1-0.2-1.8-0.6-2.3c-0.4-0.5-0.8-0.7-1.4-0.7c-0.4,0-0.7,0.1-1,0.3
			c-0.3,0.2-0.5,0.5-0.6,1c-0.1,0.4-0.2,1-0.2,1.7c0,1.2,0.2,2,0.5,2.4C84.2,65.3,84.7,65.5,85.3,65.5z"/>
		<path class="st10" d="M94.4,71.2c-0.8,0-1.5-0.1-2.2-0.4v-2.2l1,0.1c0.5,0,0.9,0,1.2-0.1c0.3-0.1,0.5-0.2,0.6-0.3
			c0.1-0.1,0.2-0.2,0.3-0.4c0.1-0.1,0.1-0.2,0.1-0.3l0.1-0.4l-4.1-10.1h3.5l2.3,6.4l2.3-6.4h3.4l-4.3,10.4c-0.4,1-0.8,1.8-1.3,2.3
			s-0.9,0.9-1.4,1.1S94.9,71.2,94.4,71.2z"/>
		<path class="st10" d="M113.2,56.9c0.9,0,1.8,0.2,2.4,0.6c0.7,0.4,1.2,0.9,1.6,1.6s0.6,1.4,0.6,2.2h-2.9c0-0.2-0.1-0.5-0.2-0.8
			c-0.1-0.3-0.3-0.5-0.5-0.7c-0.2-0.2-0.5-0.3-0.9-0.3c-0.6,0-1.1,0.2-1.5,0.7s-0.6,1.2-0.6,2.2c0,1,0.2,1.7,0.6,2.3
			c0.4,0.5,0.9,0.8,1.5,0.8c0.4,0,0.7-0.1,0.9-0.3c0.2-0.2,0.4-0.4,0.5-0.7s0.2-0.5,0.2-0.7h2.8c0,0.8-0.2,1.4-0.6,2.1
			s-0.9,1.1-1.6,1.5c-0.7,0.4-1.5,0.6-2.4,0.6c-1,0-1.9-0.2-2.7-0.7c-0.8-0.5-1.4-1.1-1.9-1.9c-0.5-0.8-0.7-1.8-0.7-2.9
			c0-1.1,0.2-2.1,0.7-2.9c0.4-0.8,1.1-1.5,1.9-2C111.3,57.1,112.2,56.9,113.2,56.9z"/>
		<path class="st10" d="M123.4,68c-0.9,0-1.6-0.1-2.1-0.3c-0.5-0.2-0.9-0.5-1.1-0.8c-0.2-0.3-0.4-0.7-0.4-1.1
			c-0.1-0.4-0.1-0.8-0.1-1.2V52.5h3.4v11.8c0,0.3,0.1,0.6,0.2,0.8s0.5,0.4,1,0.4l0.5,0v2.2c-0.2,0.1-0.4,0.1-0.7,0.2
			C123.9,68,123.6,68,123.4,68z"/>
		<path class="st10" d="M129.6,63.3c0,0.5,0.1,0.9,0.2,1.2s0.4,0.6,0.7,0.8s0.6,0.3,1,0.3c0.4,0,0.8-0.1,1.2-0.3
			c0.3-0.2,0.6-0.5,0.7-1h3.1c-0.1,0.8-0.4,1.4-0.9,2c-0.5,0.6-1.1,1-1.8,1.3s-1.5,0.4-2.2,0.4c-1.1,0-2-0.2-2.9-0.7
			s-1.5-1.1-1.9-1.9c-0.5-0.8-0.7-1.8-0.7-2.9c0-1,0.2-2,0.6-2.8c0.4-0.9,1-1.5,1.8-2.1s1.7-0.8,2.9-0.8c1.1,0,2.1,0.2,2.8,0.7
			s1.3,1.1,1.7,1.9s0.6,1.8,0.6,2.8v0.9H129.6z M129.6,61.2h3.7c0-0.4-0.1-0.7-0.2-1c-0.1-0.3-0.3-0.5-0.6-0.7s-0.6-0.3-1-0.3
			c-0.4,0-0.7,0.1-1,0.3c-0.3,0.2-0.5,0.4-0.7,0.7C129.7,60.6,129.6,60.9,129.6,61.2z"/>
		<path class="st10" d="M141.6,68c-0.7,0-1.3-0.1-1.8-0.4s-1-0.6-1.3-1.1c-0.3-0.5-0.5-1.1-0.5-1.8c0-1.2,0.4-2.1,1.3-2.7
			c0.9-0.6,2.3-0.9,4.2-0.9l1.1,0v-0.5c0-0.4-0.1-0.7-0.4-0.9s-0.6-0.3-1.1-0.3c-0.4,0-0.7,0.1-1.1,0.2c-0.4,0.2-0.6,0.5-0.8,0.9
			h-2.9c0-0.8,0.3-1.5,0.7-2c0.4-0.5,1-0.9,1.7-1.1c0.7-0.2,1.5-0.4,2.4-0.4c1.2,0,2.1,0.1,2.8,0.4s1.2,0.7,1.5,1.2s0.4,1.1,0.4,1.8
			v7.5H145l-0.3-1.8c-0.3,0.8-0.8,1.3-1.3,1.5S142.3,68,141.6,68z M142.8,65.7c0.2,0,0.5,0,0.7-0.1c0.2-0.1,0.4-0.2,0.6-0.3
			c0.2-0.1,0.3-0.3,0.4-0.5s0.2-0.4,0.2-0.6v-1.5l-0.9,0c-0.4,0-0.7,0-1.1,0.1c-0.4,0.1-0.7,0.3-1,0.5c-0.3,0.2-0.4,0.5-0.4,0.9
			c0,0.4,0.2,0.8,0.5,1.1C142,65.6,142.4,65.7,142.8,65.7z"/>
		<path class="st10" d="M150.3,67.8V57.1h3.5v1.5c0.2-0.2,0.4-0.5,0.6-0.7s0.6-0.4,1-0.6s0.9-0.2,1.4-0.2c0.6,0,1.2,0.1,1.8,0.4
			s1,0.6,1.4,1.2c0.4,0.5,0.5,1.2,0.5,2.1v7.1H157v-6.6c0-0.5-0.2-0.8-0.5-1.1c-0.3-0.2-0.7-0.4-1-0.4c-0.3,0-0.5,0-0.8,0.1
			c-0.3,0.1-0.5,0.2-0.6,0.4s-0.2,0.4-0.2,0.7v6.7H150.3z"/>
		<path class="st10" d="M168.6,52.7c1.1,0,2,0.2,2.8,0.5c0.8,0.3,1.5,0.8,2,1.4c0.5,0.6,0.7,1.4,0.7,2.3c0,0.8-0.2,1.4-0.6,1.9
			c-0.4,0.5-0.9,0.9-1.5,1.2c0.4,0.1,0.9,0.3,1.3,0.7s0.8,0.8,1.1,1.3c0.3,0.5,0.4,1,0.4,1.6c0,0.9-0.3,1.7-0.8,2.3
			c-0.5,0.7-1.2,1.2-2.2,1.5c-0.9,0.4-2,0.5-3.2,0.5c-1.2,0-2.3-0.2-3.2-0.5c-0.9-0.4-1.6-0.9-2.2-1.5c-0.5-0.7-0.8-1.4-0.8-2.3
			c0-0.6,0.1-1.1,0.4-1.6c0.3-0.5,0.6-0.9,1.1-1.3s0.9-0.6,1.3-0.7c-0.6-0.3-1.1-0.7-1.5-1.2c-0.4-0.5-0.6-1.2-0.6-1.9
			c0-0.9,0.2-1.7,0.7-2.3s1.1-1.1,2-1.4C166.6,52.8,167.6,52.7,168.6,52.7z M168.6,65.4c0.8,0,1.4-0.2,1.8-0.5s0.6-0.8,0.6-1.4
			c0-0.4-0.1-0.7-0.3-1c-0.2-0.3-0.5-0.5-0.8-0.7s-0.8-0.2-1.3-0.2c-0.5,0-0.9,0.1-1.3,0.2c-0.4,0.2-0.6,0.4-0.8,0.7
			c-0.2,0.3-0.3,0.6-0.3,1c0,0.6,0.2,1,0.7,1.4S167.8,65.4,168.6,65.4z M168.6,58.7c0.6,0,1.1-0.2,1.5-0.5s0.6-0.8,0.6-1.4
			s-0.2-1-0.6-1.4c-0.4-0.3-0.9-0.5-1.5-0.5c-0.6,0-1.1,0.2-1.4,0.5c-0.4,0.3-0.6,0.8-0.6,1.4s0.2,1,0.6,1.4S168,58.7,168.6,58.7z"
			/>
		<path class="st10" d="M181.2,68c-0.7,0-1.5-0.1-2.2-0.4c-0.7-0.2-1.3-0.6-1.8-1.2c-0.5-0.5-0.8-1.3-1-2.1h3
			c0.1,0.4,0.3,0.6,0.5,0.8c0.2,0.2,0.5,0.3,0.8,0.4s0.5,0.1,0.7,0.1c0.5,0,0.9-0.1,1.2-0.2c0.3-0.1,0.5-0.4,0.5-0.7
			c0-0.2-0.1-0.4-0.3-0.6c-0.2-0.1-0.5-0.3-1-0.3l-1.7-0.3c-1-0.2-1.8-0.5-2.4-1s-0.9-1.2-0.9-2.1c0-0.7,0.2-1.2,0.5-1.8
			c0.4-0.5,0.9-0.9,1.6-1.2c0.7-0.3,1.5-0.5,2.6-0.5c1.4,0,2.5,0.3,3.3,0.9c0.8,0.6,1.2,1.4,1.2,2.5h-2.9c-0.1-0.4-0.3-0.6-0.6-0.8
			c-0.3-0.2-0.7-0.3-1.1-0.3c-0.4,0-0.8,0.1-1.1,0.2c-0.3,0.1-0.4,0.4-0.4,0.7c0,0.2,0.1,0.4,0.4,0.5s0.7,0.3,1.2,0.4l1.6,0.3
			c0.6,0.2,1.2,0.4,1.6,0.6c0.4,0.3,0.7,0.6,0.9,0.9s0.4,0.6,0.4,0.9c0.1,0.3,0.1,0.6,0.1,0.8c0,0.7-0.2,1.4-0.6,1.9
			c-0.4,0.5-1,0.9-1.7,1.2C182.9,67.9,182.1,68,181.2,68z"/>
	</g>
</g>
</svg>
