<?xml version="1.0" encoding="utf-8"?>
<!-- Generator: Adobe Illustrator 25.2.0, SVG Export Plug-In . SVG Version: 6.00 Build 0)  -->
<svg version="1.1" id="Layer_1" xmlns="http://www.w3.org/2000/svg" xmlns:xlink="http://www.w3.org/1999/xlink" x="0px" y="0px"
	 viewBox="0 0 220.3 80" style="enable-background:new 0 0 220.3 80;" xml:space="preserve">
<style type="text/css">
	.st0{display:none;fill:#316BDE;}
	.st1{display:none;}
	.st2{display:inline;fill:#FFFFFF;}
	.st3{display:none;fill:#FFFFFF;}
	.st4{fill:#FE3A5E;}
	.st5{fill:#316BDE;}
	.st6{display:none;fill:#03C4A1;}
	.st7{display:inline;fill:#8D29ED;}
	.st8{display:inline;}
	.st9{fill:#8D29ED;}
	.st10{fill:#FFFFFF;}
</style>
<rect x="0.1" width="220.2" height="80"/>
<path class="st0" d="M53.9,5H9.4C4,5-0.4,9.4-0.4,14.7v44.5c0,0.3,0,0.7,0,1l17.8,8.5L16.6,69h37.3c5.4,0,9.7-4.4,9.7-9.7V14.7
	C63.6,9.4,59.3,5,53.9,5z"/>
<g class="st1">
	<path class="st2" d="M18.5,10.4c5.1,2.8,9.2,5.7,14.9,8.7l-0.7,0.3c3.7-1.6,3.6-1.4,11-4l0.4,0.1c-0.1,0-10.7,5-10.8,5.1
		c-5.1-3.3-10.1-6.7-15.2-10.1L18.5,10.4z"/>
	<path class="st2" d="M33.1,22.2l-0.7-0.4c-3.3-2.1-6.5-4.3-9.8-6.5c-1.8-1.1-3.6-2.4-5.4-3.6L14.6,10l4-1.1l0.6,0.3
		c2.7,1.4,5.1,2.8,7.7,4.4c2.1,1.3,4.3,2.6,6.7,4c2.3-1,3.1-1.3,8.1-2.8l2.1-0.7l3.8,1.4l-3,1.4c-0.1,0-10.7,5-10.8,5.1L33.1,22.2z"
		/>
</g>
<path class="st3" d="M46.4,32.6c0-6.3,0-5.8-1-11l-12.9,5.7c-6.4-5.4-12.2-9.2-17.8-11.7c-4.6-2.1-9.4-3.2-14.4-3.5
	c0,0.1,0,0.1-0.1,0.3c6.8,0.4,12.2,2.6,16,6.3C20.8,23,23,29.2,23,37.2c0,7.1-2.3,12.5-6.8,16.5c-4,3.6-9.4,5.4-16.2,6
	c0,0.3,0,0.6,0,0.7l12.4,6.1c1.7,0.9,3.3,1.7,5,2.6c6.3-1.7,11.7-4.3,16.2-7.7C42.1,54.5,46.4,45,46.4,32.6z"/>
<g id="Layer_1_2_">
	<g id="Layer_2_2_">
	</g>
	<g id="Layer_1_1_">
		<path class="st4" d="M-24.5-46.9"/>
		<polygon class="st5" points="51.6,8.1 31.3,66.8 44.6,66.8 64.9,8.1 		"/>
		<polygon class="st6" points="41.1,3.3 24.5,51.1 35.4,51.1 51.9,3.3 		"/>
		<path class="st4" d="M52,10.4"/>
		<g class="st1">
			<path class="st7" d="M39.3,39.6V35c0.1-1.3-0.3-2.5-1-3.5c-0.9-0.8-2.2-1.2-3.4-1c-1.5,0-2.9,0.4-4.1,1c-1.3,0.8-2.7,1.5-4,2.4
				c-1.7,1.1-3.6,2.1-5.4,2.9c-2,0.8-4,1.2-6.1,1.2c-3.4,0.3-6.8-1-9-3.6c-2.2-3.5-3.1-7.5-2.8-11.7v-5.5h11v4.6
				c-0.1,1.2,0.2,2.4,0.8,3.5c0.8,0.8,1.7,1.2,2.8,1c1.3,0,2.6-0.4,3.7-1.1c1.2-0.8,2.4-1.5,3.8-2.4c1.7-1.1,3.6-2.2,5.5-2.9
				c2-0.8,4.1-1.2,6.3-1.2c3.8-0.3,7.4,1,10.1,3.6c2.4,3.4,3.5,7.5,3.1,11.7v5.5H39.3C39.3,39.5,39.3,39.6,39.3,39.6z"/>
		</g>
		<polygon class="st5" points="30.2,8.1 9.9,66.8 23.3,66.8 43.6,8.1 		"/>
		<g class="st1">
			<g class="st8">
				<path class="st9" d="M35.9,18.8l-4,11.7c0.4-0.1,0.8-0.1,1.3-0.1c1.2-0.1,2.4,0.3,3.4,1c0.8,1,1.2,2.2,1,3.5v4.6h1.8l6-17.3
					C42.8,19.8,39.4,18.5,35.9,18.8z"/>
				<path class="st10" d="M39.6,40h-2.4v-5c0.1-1.2-0.3-2.4-1-3.3c-0.8-0.7-2-1-3.1-0.9c-0.4,0-0.8,0.1-1.3,0.1L31.2,31l4.3-12.6
					h0.2c3.6-0.2,7.1,1,9.7,3.6l0.1,0.1L39.6,40z M37.9,39.3h1.2l5.8-17c-2.4-2.2-5.5-3.4-8.8-3.3l-3.8,11.1c0.3,0,0.6-0.1,0.8-0.1
					c1.3-0.1,2.6,0.3,3.6,1.2c0.8,1,1.3,2.4,1.2,3.8V39.3L37.9,39.3z"/>
			</g>
		</g>
		<g>
			<path class="st10" d="M18.5,35.9c-0.3-0.3-0.8-0.5-1-0.8c-0.8-1.3-1.3-2.8-1-4.3v-5.7H3v6.8c-0.4,5,0.7,10,3.4,14.2
				c1.9,2.2,4.5,3.6,7.3,4.2L18.5,35.9z"/>
		</g>
		<path class="st10" d="M57.1,31.4c-3.2-3.2-7.8-4.8-12.4-4.5c-1.8,0-3.7,0.3-5.5,0.8l-5.9,16.9c1-0.6,2.2-1.3,3.3-1.9
			c1.5-0.8,3.3-1.3,5.1-1.3c1.5-0.1,3.1,0.3,4.2,1.3c1,1.1,1.5,2.7,1.3,4.3v5.5h13.6v-6.8C61.3,40.6,60.1,35.6,57.1,31.4z"/>
	</g>
	<g>
		<g>
			<path class="st10" d="M106.5,51.5h-8.1l-7.6-12.4L87,43.2v8.3h-8.1V10.4H87v24.4L97.5,23h8.7L95.7,34.2L106.5,51.5z"/>
			<path class="st10" d="M123.4,22.3c2.4,0,4.5,0.5,6.2,1.5c1.8,0.9,3.1,2.3,4.1,4c0.9,1.7,1.6,3.6,1.8,5.5h-6.7
				c-0.1-0.7-0.4-1.5-0.8-2.3c-0.4-0.7-0.9-1.4-1.7-1.9c-0.7-0.5-1.7-0.7-2.7-0.7c-1.9,0-3.5,0.7-4.6,2.2c-1.2,1.5-1.8,3.7-1.8,6.6
				c0,2.8,0.5,5,1.7,6.6c1.2,1.7,2.7,2.4,4.8,2.4c1,0,2-0.3,2.7-0.8s1.3-1.2,1.7-1.9c0.4-0.7,0.6-1.5,0.7-2.1h6.6
				c-0.1,2-0.7,3.8-1.7,5.3c-1,1.6-2.4,2.8-4.2,3.8c-1.8,0.9-3.8,1.4-6.2,1.4c-2.6,0-5-0.6-7.1-1.8s-3.8-2.8-4.9-5.1
				c-1.2-2.2-1.8-4.8-1.8-7.9c0-2.9,0.5-5.5,1.7-7.9c1.2-2.3,2.7-4,4.8-5.2C118.1,22.9,120.5,22.3,123.4,22.3z"/>
			<path class="st10" d="M150.1,52c-2.1,0-3.8-0.2-5-0.7c-1.3-0.5-2.2-1.2-2.7-2c-0.6-0.8-0.9-1.8-1.2-2.7c-0.2-1-0.2-2-0.2-3V10.4
				h8v32.1c0,1,0.2,1.9,0.6,2.5c0.4,0.6,1.3,1,2.5,1.2l1.4,0.1v5c-0.5,0.2-1.2,0.3-1.7,0.5C151.2,51.9,150.7,52,150.1,52z"/>
		</g>
	</g>
</g>
<g>
	<g>
		<path class="st10" d="M118.7,77.2c-1.3,0-2.4-0.2-3.3-0.7c-1-0.5-1.7-1.1-2.2-2c-0.5-0.9-0.8-1.9-0.8-3v-8.1c0-1.2,0.3-2.2,0.8-3
			c0.5-0.9,1.3-1.5,2.2-2c1-0.5,2.1-0.7,3.3-0.7c1.3,0,2.4,0.2,3.4,0.7c0.9,0.5,1.7,1.1,2.2,2c0.5,0.9,0.8,1.9,0.8,3h-3.9
			c0-0.8-0.2-1.3-0.6-1.8c-0.4-0.4-1-0.6-1.8-0.6c-0.8,0-1.4,0.2-1.8,0.6c-0.4,0.4-0.6,1-0.6,1.8v8.1c0,0.7,0.2,1.3,0.6,1.7
			c0.4,0.4,1,0.6,1.8,0.6c0.8,0,1.4-0.2,1.8-0.6c0.4-0.4,0.6-1,0.6-1.7h3.9c0,1.1-0.3,2.2-0.8,3c-0.5,0.9-1.3,1.5-2.2,2
			C121.1,77,120,77.2,118.7,77.2z"/>
		<path class="st10" d="M128.9,76.9V57.9h3.9v15.4h7.7v3.7H128.9z"/>
		<path class="st10" d="M144.2,76.9V57.9H156v3.3h-7.9v4.3h7v3.3h-7v4.8h7.9v3.3H144.2z"/>
		<path class="st10" d="M158.5,76.9l4.7-19.1h5l4.7,19.1h-4l-0.9-4.3h-4.5l-0.9,4.3H158.5z M164,69.5h3.2l-0.9-4.6
			c-0.1-0.7-0.2-1.3-0.4-2c-0.1-0.7-0.2-1.2-0.3-1.5c-0.1,0.4-0.2,0.9-0.3,1.5c-0.1,0.6-0.2,1.3-0.4,2L164,69.5z"/>
		<path class="st10" d="M175,76.9V57.9h4.6l4.9,14.8c-0.1-0.6-0.1-1.4-0.2-2.2c-0.1-0.8-0.1-1.7-0.2-2.5c0-0.8-0.1-1.6-0.1-2.2v-7.8
			h3.4v19.1H183l-4.9-14.8c0.1,0.6,0.1,1.2,0.2,2c0.1,0.8,0.1,1.5,0.1,2.3c0,0.8,0.1,1.5,0.1,2.1v8.4H175z"/>
		<path class="st10" d="M197,77.2c-1.3,0-2.5-0.2-3.4-0.7c-1-0.4-1.7-1.1-2.2-1.9s-0.8-1.7-0.8-2.8c0-1.2,0.3-2.2,1-3s1.6-1.5,2.8-2
			l3.2-1.4c0.5-0.2,1-0.6,1.3-1c0.3-0.4,0.5-0.9,0.5-1.5c0-0.6-0.2-1.1-0.6-1.5c-0.4-0.4-1-0.6-1.7-0.6c-0.7,0-1.3,0.2-1.7,0.6
			s-0.6,0.9-0.6,1.5c0,0.5,0.2,1,0.5,1.5c0.3,0.4,0.8,0.8,1.3,1l3.2,1.4c1.3,0.6,2.3,1.3,2.9,2.1c0.6,0.8,0.9,1.8,0.9,2.9
			c0,1.6-0.6,2.9-1.8,3.9C200.5,76.7,199,77.2,197,77.2z M197,73.9c0.8,0,1.4-0.2,1.9-0.7c0.5-0.4,0.7-1,0.7-1.6
			c0-0.5-0.2-1-0.5-1.5c-0.3-0.5-0.8-0.9-1.4-1.1l-3.6-1.6c-1-0.5-1.9-1.1-2.5-1.9c-0.6-0.8-0.9-1.7-0.9-2.8c0-1,0.3-1.8,0.8-2.6
			c0.5-0.8,1.2-1.4,2.2-1.8c0.9-0.5,2-0.7,3.3-0.7c1.3,0,2.4,0.2,3.3,0.7c0.9,0.5,1.6,1.1,2.1,1.8c0.5,0.8,0.8,1.6,0.8,2.6
			c0,1.1-0.3,2-0.9,2.8c-0.6,0.8-1.4,1.4-2.4,1.8l-3.6,1.6c-0.6,0.2-1,0.6-1.4,1.1c-0.3,0.5-0.5,1-0.5,1.5c0,0.7,0.2,1.2,0.7,1.7
			C195.6,73.7,196.2,73.9,197,73.9z"/>
		<path class="st10" d="M212.6,77.2c-1.3,0-2.5-0.2-3.5-0.7c-1-0.5-1.8-1.1-2.3-1.9c-0.5-0.8-0.8-1.8-0.8-2.9h3.9
			c0,0.6,0.2,1.2,0.7,1.5c0.5,0.4,1.2,0.6,2,0.6c0.8,0,1.5-0.2,1.9-0.5c0.5-0.4,0.7-0.9,0.7-1.5c0-0.6-0.2-1-0.5-1.4
			c-0.3-0.4-0.8-0.7-1.5-0.8l-1.9-0.4c-1.6-0.4-2.9-1.1-3.8-2.1c-0.9-1-1.3-2.3-1.3-3.8c0-1.1,0.3-2.1,0.8-2.9s1.2-1.5,2.2-1.9
			c0.9-0.5,2.1-0.7,3.3-0.7c2,0,3.5,0.5,4.6,1.4c1.1,1,1.7,2.3,1.7,3.9H215c0-0.6-0.2-1.1-0.6-1.4c-0.4-0.3-1-0.5-1.8-0.5
			c-0.7,0-1.3,0.2-1.7,0.5c-0.4,0.3-0.6,0.8-0.6,1.4c0,0.6,0.2,1,0.5,1.4s0.8,0.7,1.4,0.8l2,0.5c1.7,0.4,3,1.1,3.8,2.1
			c0.9,1,1.3,2.3,1.3,3.8c0,1.1-0.3,2.1-0.8,3c-0.5,0.9-1.3,1.5-2.3,2C215.1,77,214,77.2,212.6,77.2z"/>
	</g>
</g>
<g>
	<g>
		<path class="st5" d="M77.8,77.2V58.1h6.1c1.9,0,3.5,0.4,4.6,1.3c1.1,0.9,1.7,2.1,1.7,3.6c0,0.8-0.2,1.6-0.6,2.2s-0.9,1.1-1.6,1.5
			s-1.4,0.5-2.1,0.5v0.1c0.9,0,1.6,0.1,2.3,0.5c0.7,0.3,1.3,0.8,1.7,1.5c0.4,0.7,0.7,1.5,0.7,2.5c0,1.1-0.3,2.1-0.8,2.9
			c-0.5,0.8-1.3,1.5-2.3,1.9c-1,0.5-2.1,0.7-3.5,0.7H77.8z M81.6,65.8h2.3c0.8,0,1.4-0.2,1.8-0.6s0.7-1,0.7-1.7
			c0-0.7-0.2-1.3-0.7-1.7s-1-0.6-1.8-0.6h-2.3V65.8z M81.6,74H84c0.9,0,1.5-0.2,2-0.7c0.5-0.5,0.7-1.1,0.7-1.9
			c0-0.8-0.2-1.4-0.7-1.9c-0.5-0.5-1.2-0.7-2-0.7h-2.4V74z"/>
		<path class="st5" d="M97.6,77.2v-6.8l-5.5-12.3h4.1l2.4,5.7c0.2,0.6,0.5,1.2,0.6,1.8c0.2,0.6,0.3,1.2,0.4,1.6
			c0.1-0.4,0.2-0.9,0.4-1.6c0.2-0.6,0.4-1.3,0.6-1.8l2.3-5.7h4.1l-5.5,12.3v6.8H97.6z"/>
	</g>
</g>
</svg>
