<svg xmlns="http://www.w3.org/2000/svg" xmlns:xlink="http://www.w3.org/1999/xlink" version="1.1" id="Layer_1" x="0px" y="0px" viewBox="0 0 220.3 64" fill="#FFFFFF" style="enable-background:new 0 0 220.3 64;" xml:space="preserve">
<g>
	<path d="M31.2,4.6c5.1,2.8,9.2,5.7,14.9,8.7l-0.7,0.3c3.7-1.6,3.6-1.4,11-4l0.4,0.1c-0.1,0-10.7,5-10.8,5.1   c-5.1-3.3-10.1-6.7-15.2-10.1L31.2,4.6z"/>
	<path d="M45.8,16.4L45.1,16c-3.3-2.1-6.5-4.3-9.8-6.5c-1.8-1.1-3.6-2.4-5.4-3.6l-2.6-1.7l4-1.1l0.6,0.3c2.7,1.4,5.1,2.8,7.7,4.4   c2.1,1.3,4.3,2.6,6.7,4c2.3-1,3.1-1.3,8.1-2.8l2.1-0.7l3.8,1.4l-3,1.4c-0.1,0-10.7,5-10.8,5.1L45.8,16.4z"/>
</g>
<path d="M59.1,26.8c0-6.3,0-5.8-1-11l-12.9,5.7C38.8,16.1,33,12.3,27.4,9.8C22.8,7.7,18,6.6,13,6.3c0,0.1,0,0.1-0.1,0.3  c6.8,0.4,12.2,2.6,16,6.3c4.6,4.3,6.8,10.5,6.8,18.5c0,7.1-2.3,12.5-6.8,16.5c-4,3.6-9.4,5.4-16.2,6c0,0.3,0,0.6,0,0.7l12.4,6.1  c1.7,0.9,3.3,1.7,5,2.6c6.3-1.7,11.7-4.3,16.2-7.7C54.8,48.7,59.1,39.2,59.1,26.8z"/>
<g>
	<g>
		<path d="M73.7,45.7c-1.4-0.8-2.5-1.9-3.3-3.3s-1.1-3.2-1.1-5.3v-3.7c0-2,0.4-3.8,1.1-5.2c0.8-1.4,1.9-2.5,3.3-3.3s3.2-1.1,5.2-1.1    c1.2,0,2.3,0.1,3.3,0.4s2,0.7,2.8,1.2s1.5,1.2,2,1.9l-3.2,2.8c-0.6-0.7-1.4-1.3-2.2-1.7C80.8,28.2,79.9,28,79,28    c-1.7,0-3,0.5-3.9,1.4s-1.4,2.3-1.4,4v3.7c0,1.8,0.5,3.1,1.4,4.1s2.2,1.4,4,1.4c0.9,0,1.8-0.2,2.7-0.6c0.8-0.4,1.6-1,2.2-1.8    l3.2,3.1c-0.6,0.7-1.3,1.4-2.1,1.9c-0.8,0.5-1.7,0.9-2.8,1.2c-1,0.3-2.1,0.4-3.3,0.4C76.9,46.8,75.1,46.4,73.7,45.7z"/>
		<path d="M96.3,40.7c0,0.5,0.1,1,0.4,1.3s0.6,0.4,1,0.4h2.1v4.2h-2.6c-1.7,0-3-0.5-3.9-1.6c-0.9-1-1.4-2.5-1.4-4.4V15.1h4.4V40.7z"/>
		<path d="M108.5,45.7c-1.5-0.8-2.6-1.9-3.4-3.4s-1.2-3.3-1.2-5.4v-2.5c0-2.2,0.4-4.1,1.1-5.7s1.8-2.8,3.2-3.6    c1.4-0.8,3.1-1.2,5.1-1.2c1.9,0,3.5,0.5,4.8,1.4s2.3,2.3,3,4.1c0.7,1.8,1,3.9,1,6.4v1.5H107v-3.5h10.9c-0.1-1.8-0.6-3.2-1.4-4.3    c-0.8-1-1.9-1.5-3.3-1.5c-1.7,0-3,0.5-3.9,1.6s-1.4,2.6-1.4,4.6V37c0,1.9,0.5,3.3,1.5,4.3s2.4,1.5,4.2,1.5c0.9,0,1.8-0.2,2.7-0.5    c0.9-0.4,1.7-0.9,2.4-1.5l2.9,2.9c-1.1,1.1-2.4,1.9-3.7,2.5c-1.4,0.6-2.8,0.9-4.2,0.9C111.8,46.8,110,46.4,108.5,45.7z"/>
		<path d="M129.3,45.1c-1.4-1.1-2-2.9-2-5.2c0-2.2,0.6-3.9,1.9-5c1.3-1.1,3.1-1.7,5.7-1.7h6.4l0.3,3.5H135c-1.2,0-2,0.3-2.6,0.8    s-0.9,1.3-0.9,2.3c0,1.1,0.4,2,1.1,2.5c0.8,0.5,1.9,0.8,3.4,0.8c1.7,0,2.9-0.2,3.8-0.5c0.8-0.4,1.2-0.9,1.2-1.7l0.5,3.2    c-0.4,0.6-0.9,1.1-1.4,1.5s-1.2,0.7-2,0.9s-1.6,0.3-2.5,0.3C132.8,46.8,130.7,46.3,129.3,45.1z M141,32.3c0-1.5-0.4-2.6-1.2-3.4    s-1.9-1.2-3.3-1.2c-0.9,0-1.8,0.1-2.6,0.4s-1.6,0.7-2.3,1.1l-3.2-2.2c0.8-1,2-1.8,3.4-2.4s2.9-0.9,4.6-0.9c1.9,0,3.4,0.3,4.8,1    c1.3,0.7,2.3,1.6,3,2.8c0.7,1.2,1,2.7,1,4.5v14.4H141V32.3z"/>
		<path d="M151.9,24.1h4.4v22.4h-4.4V24.1z M165.5,32.9c0-1.6-0.4-2.8-1.2-3.7c-0.8-0.9-2-1.3-3.5-1.3c-1.4,0-2.5,0.4-3.3,1.1    c-0.8,0.8-1.2,1.8-1.2,3.2l-0.5-4.3c0.7-1.4,1.6-2.4,2.7-3.1c1.1-0.7,2.3-1.1,3.7-1.1c2.4,0,4.3,0.8,5.6,2.4s2,3.8,2,6.7v13.6    h-4.4L165.5,32.9L165.5,32.9z"/>
		<path d="M180.5,45.7c-1.4-0.7-2.6-1.7-3.3-3.1c-0.8-1.3-1.2-2.8-1.2-4.6v-0.5c0-1.6,0.4-3,1.2-4.4c0.8-1.4,1.8-2.4,3.1-3.1    c-1.1-0.6-2-1.5-2.7-2.6s-1-2.3-1-3.6V23c0-1.6,0.4-3.1,1.1-4.3c0.7-1.2,1.8-2.2,3.1-2.9c1.3-0.7,2.9-1,4.7-1s3.3,0.3,4.7,1    c1.3,0.7,2.4,1.6,3.1,2.9c0.7,1.2,1.1,2.7,1.1,4.3v0.8c0,1.3-0.3,2.5-1,3.6s-1.6,2-2.7,2.6c1.3,0.7,2.4,1.8,3.2,3.1    c0.8,1.4,1.2,2.8,1.2,4.4V38c0,1.7-0.4,3.3-1.2,4.6s-1.9,2.3-3.3,3.1c-1.4,0.7-3.1,1.1-5,1.1C183.7,46.8,182,46.5,180.5,45.7z     M188.3,42c0.8-0.4,1.4-1,1.8-1.7c0.4-0.7,0.6-1.6,0.6-2.5v-0.3c0-1-0.2-1.8-0.6-2.5c-0.4-0.7-1-1.3-1.8-1.7s-1.7-0.6-2.7-0.6    s-1.9,0.2-2.7,0.6c-0.8,0.4-1.4,1-1.8,1.7s-0.6,1.6-0.6,2.5v0.3c0,0.9,0.2,1.8,0.6,2.5c0.4,0.7,1,1.3,1.8,1.7s1.7,0.6,2.7,0.6    S187.5,42.4,188.3,42z M187.9,27.8c0.7-0.4,1.2-0.9,1.6-1.6c0.4-0.7,0.6-1.5,0.6-2.4v-0.3c0-0.9-0.2-1.7-0.6-2.3    c-0.4-0.7-0.9-1.2-1.6-1.6c-0.7-0.4-1.5-0.6-2.3-0.6c-0.9,0-1.7,0.2-2.3,0.6c-0.7,0.4-1.2,0.9-1.6,1.6s-0.6,1.5-0.6,2.4v0.3    c0,0.9,0.2,1.7,0.6,2.4s0.9,1.2,1.6,1.6c0.7,0.4,1.5,0.6,2.3,0.6C186.4,28.4,187.2,28.2,187.9,27.8z"/>
		<path d="M205.6,46.4c-1.2-0.3-2.2-0.6-3.2-1.2c-1-0.5-1.9-1.2-2.8-1.9l2.6-3.2c1.2,0.9,2.4,1.6,3.6,2.1c1.2,0.5,2.4,0.7,3.5,0.7    c1.7,0,3-0.3,3.9-0.8s1.3-1.3,1.3-2.4c0-0.7-0.2-1.3-0.7-1.6c-0.5-0.4-1.1-0.6-1.8-0.7s-1.7-0.2-3-0.3c-0.1,0-0.2,0-0.4,0    c-0.1,0-0.3,0-0.4,0c-0.1,0-0.1,0-0.2,0c-0.1,0-0.1,0-0.2,0c-1.5-0.1-2.7-0.3-3.7-0.6s-1.8-0.9-2.5-1.7s-1-2.1-1-3.6    c0-1.6,0.3-2.9,1-3.9c0.6-1,1.6-1.8,2.9-2.4c1.3-0.5,2.9-0.8,4.8-0.8c1.2,0,2.3,0.1,3.3,0.3c1.1,0.2,2.1,0.5,3,1    c1,0.4,1.9,1,2.8,1.6l-2.7,3.2c-1.1-0.7-2.2-1.3-3.3-1.6c-1.1-0.4-2.1-0.5-3.2-0.5c-1.5,0-2.6,0.3-3.4,0.8s-1.1,1.3-1.1,2.3    c0,0.6,0.2,1.1,0.6,1.4c0.4,0.3,1,0.5,1.6,0.6s1.6,0.2,2.8,0.3c0.1,0,0.2,0,0.3,0s0.2,0,0.3,0h0.1h0.1c1.6,0.1,2.9,0.3,4,0.6    s2,0.9,2.8,1.9c0.7,0.9,1.1,2.3,1.1,4.1c0,1.6-0.3,2.9-1,4s-1.7,1.9-3.1,2.4c-1.4,0.5-3.1,0.8-5.2,0.8    C208,46.8,206.8,46.7,205.6,46.4z"/>
	</g>
</g>
</svg>