<?xml version="1.0" encoding="utf-8"?>
<!-- Generator: Adobe Illustrator 25.2.0, SVG Export Plug-In . SVG Version: 6.00 Build 0)  -->
<svg version="1.1" id="Layer_1" xmlns="http://www.w3.org/2000/svg" xmlns:xlink="http://www.w3.org/1999/xlink" x="0px" y="0px"
	 viewBox="0 0 307.8 116.8" style="enable-background:new 0 0 307.8 116.8;" xml:space="preserve">
<style type="text/css">
	.st0{stroke:#000000;stroke-miterlimit:10;}
	.st1{fill:#FE3A5E;}
	.st2{fill:#03C4A1;}
	.st3{display:none;fill:#03C4A1;}
	.st4{display:none;}
	.st5{display:inline;fill:#8D29ED;}
	.st6{display:inline;}
	.st7{fill:#8D29ED;}
	.st8{fill:#FFFFFF;}
</style>
<g id="Layer_2_1_">
	<rect class="st0" width="307.8" height="116.8"/>
</g>
<g id="Layer_1_2_">
	<g id="Layer_2_2_">
	</g>
	<g id="Layer_1_1_">
		<path class="st1" d="M-26.1-60.4"/>
		<polygon class="st2" points="82.9,18.3 53.9,102.4 72.9,102.4 102,18.3 		"/>
		<polygon class="st3" points="67.9,11.5 44.2,79.9 59.7,79.9 83.4,11.5 		"/>
		<path class="st1" d="M83.6,21.6"/>
		<g class="st4">
			<path class="st5" d="M65.3,63.5v-6.6c0.2-1.8-0.4-3.6-1.5-5c-1.3-1.1-3.1-1.7-4.9-1.5c-2.1,0-4.1,0.6-5.9,1.5
				c-1.9,1.1-3.8,2.2-5.8,3.4c-2.5,1.6-5.2,3-7.8,4.1c-2.8,1.1-5.7,1.7-8.8,1.7c-4.9,0.5-9.7-1.5-12.9-5.2c-3.1-5-4.5-10.8-4-16.7
				v-7.9h15.8v6.6c-0.2,1.7,0.3,3.5,1.2,5c1.1,1.1,2.5,1.7,4,1.5c1.8,0,3.7-0.6,5.3-1.6c1.7-1.1,3.4-2.2,5.5-3.4
				c2.5-1.6,5.2-3.1,7.9-4.2c2.9-1.1,5.9-1.7,9-1.7c5.4-0.5,10.6,1.4,14.4,5.2c3.4,4.9,5,10.7,4.5,16.7v7.9h-16L65.3,63.5L65.3,63.5
				z"/>
		</g>
		<polygon class="st2" points="52.3,18.3 23.3,102.4 42.5,102.4 71.5,18.3 		"/>
		<g class="st4">
			<g class="st6">
				<path class="st7" d="M60.5,33.6l-5.8,16.8c0.6-0.1,1.2-0.2,1.8-0.2c1.7-0.2,3.5,0.4,4.9,1.5c1.1,1.4,1.7,3.2,1.5,5v6.6h2.6
					l8.6-24.8C70.4,35.1,65.5,33.3,60.5,33.6z"/>
				<path class="st8" d="M65.8,64h-3.4v-7.1c0.2-1.7-0.4-3.4-1.4-4.7c-1.1-1-2.8-1.5-4.4-1.3c-0.6,0-1.1,0.1-1.8,0.2L54,51.2l6.1-18
					h0.3c5.2-0.3,10.1,1.5,13.9,5.1l0.2,0.2L65.8,64z M63.4,63h1.7l8.3-24.3c-3.4-3.2-7.9-4.8-12.6-4.7l-5.5,15.8
					c0.4,0,0.8-0.1,1.1-0.1c1.8-0.2,3.7,0.5,5.2,1.7c1.2,1.5,1.8,3.4,1.7,5.5V63H63.4z"/>
			</g>
		</g>
		<g>
			<path class="st8" d="M35.6,58.2c-0.5-0.4-1.1-0.7-1.4-1.2c-1.2-1.8-1.8-4-1.5-6.1v-8.1H13.3v9.8c-0.6,7.1,1,14.3,4.8,20.4
				c2.7,3.1,6.4,5.2,10.4,6L35.6,58.2z"/>
		</g>
		<path class="st8" d="M90.8,51.7c-4.6-4.6-11.1-6.9-17.7-6.4c-2.6,0-5.3,0.4-7.9,1.1l-8.4,24.2c1.5-0.9,3.2-1.9,4.7-2.7
			c2.2-1.2,4.7-1.9,7.3-1.9c2.2-0.2,4.4,0.5,6,1.9c1.4,1.6,2.1,3.9,1.9,6.1v7.9h19.5v-9.8C96.9,64.9,95.1,57.7,90.8,51.7z"/>
	</g>
	<g>
		<g>
			<path class="st8" d="M180.8,93.9h-13.3l-12.8-20.4l-6.2,6.7v13.7h-13.3V26h13.3v40.3l17.3-19.5h14.3L163,65.5L180.8,93.9z"/>
			<path class="st8" d="M208.5,45.8c4,0,7.4,0.9,10.2,2.4c2.9,1.6,5.2,3.8,6.7,6.6c1.7,2.8,2.6,5.9,2.9,9.2h-11.1
				c-0.2-1.2-0.7-2.4-1.4-3.8c-0.7-1.2-1.6-2.2-2.8-3.1s-2.8-1.2-4.5-1.2c-3.1,0-5.7,1.2-7.6,3.6c-1.9,2.4-2.9,6-2.9,10.9
				c0,4.7,0.9,8.3,2.8,10.9c1.9,2.8,4.5,4,7.9,4c1.7,0,3.3-0.5,4.5-1.4c1.2-0.9,2.1-1.9,2.8-3.1c0.7-1.2,1-2.4,1.2-3.5h10.9
				c-0.2,3.3-1.2,6.2-2.8,8.8c-1.7,2.6-4,4.7-6.9,6.2c-2.9,1.6-6.2,2.2-10.2,2.2c-4.3,0-8.3-1-11.8-2.9s-6.2-4.7-8.1-8.5
				c-1.9-3.8-2.9-7.9-2.9-13c0-4.8,0.9-9.2,2.8-13c1.9-3.8,4.5-6.6,7.9-8.6C200,46.9,204,45.8,208.5,45.8z"/>
			<path class="st8" d="M252.7,94.7c-3.5,0-6.2-0.3-8.3-1.2c-2.1-0.9-3.6-1.9-4.5-3.3c-1-1.4-1.6-2.9-1.9-4.5
				c-0.3-1.7-0.3-3.3-0.3-5V26h13.1v53c0,1.7,0.3,3.1,1,4.1c0.7,1,2.1,1.7,4.1,1.9l2.2,0.2v8.3c-0.9,0.3-1.9,0.5-2.8,0.9
				C254.6,94.6,253.6,94.7,252.7,94.7z"/>
		</g>
	</g>
</g>
</svg>
