<?xml version="1.0" encoding="utf-8"?>
<!-- Generator: Adobe Illustrator 25.2.0, SVG Export Plug-In . SVG Version: 6.00 Build 0)  -->
<svg version="1.1" xmlns="http://www.w3.org/2000/svg" xmlns:xlink="http://www.w3.org/1999/xlink" x="0px" y="0px"
	 viewBox="0 0 307.8 116.8" style="enable-background:new 0 0 307.8 116.8;" xml:space="preserve">
<style type="text/css">
	.st0{stroke:#000000;stroke-miterlimit:10;}
	.st1{fill:#FE3A5E;}
	.st2{fill:#03C4A1;}
	.st3{display:none;fill:#03C4A1;}
	.st4{display:none;}
	.st5{display:inline;fill:#8D29ED;}
	.st6{display:inline;}
	.st7{fill:#8D29ED;}
	.st8{fill:#FFFFFF;}
</style>
<g id="Layer_2">
	<rect y="0" class="st0" width="307.8" height="116.8"/>
</g>
<g id="Layer_1">
	<g id="Layer_2_1_">
	</g>
	<g id="Layer_1_1_">
		<path class="st1" d="M23.9-60.4"/>
		<polygon class="st2" points="132.9,18.3 103.9,102.4 122.9,102.4 152,18.3 		"/>
		<polygon class="st3" points="117.9,11.5 94.2,79.9 109.7,79.9 133.4,11.5 		"/>
		<path class="st1" d="M133.6,21.6"/>
		<g class="st4">
			<path class="st5" d="M115.3,63.5v-6.6c0.2-1.8-0.4-3.6-1.5-5c-1.3-1.1-3.1-1.7-4.9-1.5c-2.1,0-4.1,0.6-5.9,1.5
				c-1.9,1.1-3.8,2.2-5.8,3.4c-2.5,1.6-5.2,3-7.8,4.1c-2.8,1.1-5.7,1.7-8.8,1.7c-4.9,0.5-9.7-1.5-12.9-5.2c-3.1-5-4.5-10.8-4-16.7
				v-7.9h15.8v6.6c-0.2,1.7,0.3,3.5,1.2,5c1.1,1.1,2.5,1.7,4,1.5c1.8,0,3.7-0.6,5.3-1.6c1.7-1.1,3.4-2.2,5.5-3.4
				c2.5-1.6,5.2-3.1,7.9-4.2c2.9-1.1,5.9-1.7,9-1.7c5.4-0.5,10.6,1.4,14.4,5.2c3.4,4.9,5,10.7,4.5,16.7v7.9h-16V63.5z"/>
		</g>
		<polygon class="st2" points="102.3,18.3 73.3,102.4 92.5,102.4 121.5,18.3 		"/>
		<g class="st4">
			<g class="st6">
				<path class="st7" d="M110.5,33.6l-5.8,16.8c0.6-0.1,1.2-0.2,1.8-0.2c1.7-0.2,3.5,0.4,4.9,1.5c1.1,1.4,1.7,3.2,1.5,5v6.6h2.6
					l8.6-24.8C120.4,35.1,115.5,33.3,110.5,33.6z"/>
				<path class="st8" d="M115.8,64h-3.4v-7.1c0.2-1.7-0.4-3.4-1.4-4.7c-1.1-1-2.8-1.5-4.4-1.3c-0.6,0-1.1,0.1-1.8,0.2l-0.8,0.1
					l6.1-18h0.3c5.2-0.3,10.1,1.5,13.9,5.1l0.2,0.2L115.8,64z M113.4,63h1.7l8.3-24.3c-3.4-3.2-7.9-4.8-12.6-4.7l-5.5,15.8
					c0.4,0,0.8-0.1,1.1-0.1c1.8-0.2,3.7,0.5,5.2,1.7c1.2,1.5,1.8,3.4,1.7,5.5V63H113.4z"/>
			</g>
		</g>
		<g>
			<path class="st8" d="M85.6,58.2c-0.5-0.4-1.1-0.7-1.4-1.2c-1.2-1.8-1.8-4-1.5-6.1v-8.1H63.3v9.8c-0.6,7.1,1,14.3,4.8,20.4
				c2.7,3.1,6.4,5.2,10.4,6L85.6,58.2z"/>
		</g>
		<path class="st8" d="M140.8,51.7c-4.6-4.6-11.1-6.9-17.7-6.4c-2.6,0-5.3,0.4-7.9,1.1l-8.4,24.2c1.5-0.9,3.2-1.9,4.7-2.7
			c2.2-1.2,4.7-1.9,7.3-1.9c2.2-0.2,4.4,0.5,6,1.9c1.4,1.6,2.1,3.9,1.9,6.1v7.9h19.5v-9.8C146.9,64.9,145.1,57.7,140.8,51.7z"/>
	</g>
	<g>
		<g>
			<path class="st8" d="M198.3,85.1h-7.7l-7.4-11.8l-3.6,3.9v7.9h-7.7V45.8h7.7v23.3l10-11.3h8.3L188,68.7L198.3,85.1z"/>
			<path class="st8" d="M214.3,57.3c2.3,0,4.3,0.5,5.9,1.4c1.7,0.9,3,2.2,3.9,3.8c1,1.6,1.5,3.4,1.7,5.3h-6.4
				c-0.1-0.7-0.4-1.4-0.8-2.2c-0.4-0.7-0.9-1.3-1.6-1.8s-1.6-0.7-2.6-0.7c-1.8,0-3.3,0.7-4.4,2.1c-1.1,1.4-1.7,3.5-1.7,6.3
				c0,2.7,0.5,4.8,1.6,6.3c1.1,1.6,2.6,2.3,4.6,2.3c1,0,1.9-0.3,2.6-0.8c0.7-0.5,1.2-1.1,1.6-1.8c0.4-0.7,0.6-1.4,0.7-2h6.3
				c-0.1,1.9-0.7,3.6-1.6,5.1c-1,1.5-2.3,2.7-4,3.6c-1.7,0.9-3.6,1.3-5.9,1.3c-2.5,0-4.8-0.6-6.8-1.7s-3.6-2.7-4.7-4.9
				s-1.7-4.6-1.7-7.5c0-2.8,0.5-5.3,1.6-7.5c1.1-2.2,2.6-3.8,4.6-5C209.4,57.9,211.7,57.3,214.3,57.3z"/>
			<path class="st8" d="M239.9,85.6c-2,0-3.6-0.2-4.8-0.7c-1.2-0.5-2.1-1.1-2.6-1.9c-0.6-0.8-0.9-1.7-1.1-2.6
				c-0.2-1-0.2-1.9-0.2-2.9V45.8h7.6v30.7c0,1,0.2,1.8,0.6,2.4c0.4,0.6,1.2,1,2.4,1.1l1.3,0.1v4.8c-0.5,0.2-1.1,0.3-1.6,0.5
				C241,85.5,240.4,85.6,239.9,85.6z"/>
		</g>
	</g>
</g>
</svg>
