<?xml version="1.0" encoding="utf-8"?>
<!-- Generator: Adobe Illustrator 25.2.0, SVG Export Plug-In . SVG Version: 6.00 Build 0)  -->
<svg version="1.1" id="Layer_1" xmlns="http://www.w3.org/2000/svg" xmlns:xlink="http://www.w3.org/1999/xlink" x="0px" y="0px"
	 viewBox="0 0 307.8 116.8" style="enable-background:new 0 0 307.8 116.8;" xml:space="preserve">
<style type="text/css">
	.st0{stroke:#000000;stroke-miterlimit:10;}
	.st1{fill:#FE3A5E;}
	.st2{fill:#316BDE;}
	.st3{display:none;fill:#03C4A1;}
	.st4{display:none;}
	.st5{display:inline;fill:#8D29ED;}
	.st6{display:inline;}
	.st7{fill:#8D29ED;}
	.st8{fill:#FFFFFF;}
</style>
<g id="Layer_2_1_">
	<rect x="-2.3" y="0" class="st0" width="310.1" height="116.8"/>
</g>
<g id="Layer_1_2_">
	<g id="Layer_2_2_">
	</g>
	<g id="Layer_1_1_">
		<path class="st1" d="M-10.2-62.8"/>
		<polygon class="st2" points="98.8,16 69.8,100.1 88.8,100.1 117.9,16 		"/>
		<polygon class="st3" points="83.8,9.1 60.1,77.6 75.6,77.6 99.3,9.1 		"/>
		<path class="st1" d="M99.5,19.2"/>
		<g class="st4">
			<path class="st5" d="M81.2,61.2v-6.6c0.2-1.8-0.4-3.6-1.5-5c-1.3-1.1-3.1-1.7-4.9-1.5c-2.1,0-4.1,0.6-5.9,1.5
				c-1.9,1.1-3.8,2.2-5.8,3.4c-2.5,1.6-5.2,3-7.8,4.1c-2.8,1.1-5.7,1.7-8.8,1.7c-4.9,0.5-9.7-1.5-12.9-5.2c-3.1-5-4.5-10.8-4-16.7
				v-7.9h15.8v6.6c-0.2,1.7,0.3,3.5,1.2,5c1.1,1.1,2.5,1.7,4,1.5c1.8,0,3.7-0.6,5.3-1.6c1.7-1.1,3.4-2.2,5.5-3.4
				c2.5-1.6,5.2-3.1,7.9-4.2c2.9-1.1,5.9-1.7,9-1.7c5.4-0.5,10.6,1.4,14.4,5.2c3.4,4.9,5,10.7,4.5,16.7V61h-16
				C81.2,61,81.2,61.2,81.2,61.2z"/>
		</g>
		<polygon class="st2" points="68.2,16 39.2,100.1 58.4,100.1 87.4,16 		"/>
		<g class="st4">
			<g class="st6">
				<path class="st7" d="M76.4,31.2L70.6,48c0.6-0.1,1.2-0.2,1.8-0.2c1.7-0.2,3.5,0.4,4.9,1.5c1.1,1.4,1.7,3.2,1.5,5v6.6h2.6
					L90,36.2C86.3,32.8,81.4,31,76.4,31.2z"/>
				<path class="st8" d="M81.7,61.7h-3.4v-7.1c0.2-1.7-0.4-3.4-1.4-4.7c-1.1-1-2.8-1.5-4.4-1.3c-0.6,0-1.1,0.1-1.8,0.2l-0.8,0.1
					l6.1-18h0.3c5.2-0.3,10.1,1.5,13.9,5.1l0.2,0.2L81.7,61.7z M79.3,60.7H81l8.3-24.3c-3.4-3.2-7.9-4.8-12.6-4.7l-5.5,15.8
					c0.4,0,0.8-0.1,1.1-0.1c1.8-0.2,3.7,0.5,5.2,1.7c1.2,1.5,1.8,3.4,1.7,5.5L79.3,60.7L79.3,60.7z"/>
			</g>
		</g>
		<g>
			<path class="st8" d="M51.5,55.8c-0.5-0.4-1.1-0.7-1.4-1.2c-1.2-1.8-1.8-4-1.5-6.1v-8.1H29.2v9.8c-0.6,7.1,1,14.3,4.8,20.4
				c2.7,3.1,6.4,5.2,10.4,6L51.5,55.8z"/>
		</g>
		<path class="st8" d="M106.7,49.3c-4.6-4.6-11.1-6.9-17.7-6.4c-2.6,0-5.3,0.4-7.9,1.1l-8.4,24.2c1.5-0.9,3.2-1.9,4.7-2.7
			c2.2-1.2,4.7-1.9,7.3-1.9c2.2-0.2,4.4,0.5,6,1.9c1.4,1.6,2.1,3.9,1.9,6.1v7.9h19.5v-9.8C112.8,62.6,111,55.3,106.7,49.3z"/>
	</g>
	<g>
		<g>
			<path class="st8" d="M161,53.8h-7.7L146,42l-3.6,3.9v7.9h-7.7V14.5h7.7v23.3l10-11.3h8.3l-10,10.8L161,53.8z"/>
			<path class="st8" d="M177.1,25.9c2.3,0,4.3,0.5,5.9,1.4c1.7,0.9,3,2.2,3.9,3.8s1.5,3.4,1.7,5.3h-6.4c-0.1-0.7-0.4-1.4-0.8-2.2
				c-0.4-0.7-0.9-1.3-1.6-1.8c-0.7-0.5-1.6-0.7-2.6-0.7c-1.8,0-3.3,0.7-4.4,2.1c-1.1,1.4-1.7,3.5-1.7,6.3c0,2.7,0.5,4.8,1.6,6.3
				c1.1,1.6,2.6,2.3,4.6,2.3c1,0,1.9-0.3,2.6-0.8c0.7-0.5,1.2-1.1,1.6-1.8c0.4-0.7,0.6-1.4,0.7-2h6.3c-0.1,1.9-0.7,3.6-1.6,5.1
				c-1,1.5-2.3,2.7-4,3.6c-1.7,0.9-3.6,1.3-5.9,1.3c-2.5,0-4.8-0.6-6.8-1.7c-2-1.1-3.6-2.7-4.7-4.9c-1.1-2.1-1.7-4.6-1.7-7.5
				c0-2.8,0.5-5.3,1.6-7.5s2.6-3.8,4.6-5C172.1,26.5,174.4,25.9,177.1,25.9z"/>
			<path class="st8" d="M202.6,54.2c-2,0-3.6-0.2-4.8-0.7s-2.1-1.1-2.6-1.9c-0.6-0.8-0.9-1.7-1.1-2.6c-0.2-1-0.2-1.9-0.2-2.9V14.5
				h7.6v30.7c0,1,0.2,1.8,0.6,2.4c0.4,0.6,1.2,1,2.4,1.1l1.3,0.1v4.8c-0.5,0.2-1.1,0.3-1.6,0.5C203.7,54.2,203.2,54.2,202.6,54.2z"
				/>
		</g>
	</g>
	<g>
		<g>
			<path class="st8" d="M148,104.8c-1.9,0-3.7-0.2-5.6-0.7c-1.8-0.5-3.5-1.2-5-2.1c-1.5-1-2.7-2.1-3.7-3.6c-1-1.4-1.6-3.1-1.8-5h7.9
				c0.3,1.2,0.8,2.1,1.5,2.9s1.7,1.4,2.8,1.8s2.4,0.6,3.8,0.6c1.4,0,2.7-0.2,3.9-0.5c1.2-0.4,2.1-0.9,2.8-1.6c0.7-0.7,1-1.6,1-2.7
				c0-1-0.3-1.8-0.8-2.4c-0.6-0.6-1.3-1.1-2.3-1.5s-2.1-0.7-3.3-1l-6.6-1.3c-2.9-0.5-5.2-1.7-6.9-3.5c-1.7-1.8-2.6-4.1-2.6-7
				c0-2.4,0.6-4.5,1.9-6.2c1.3-1.8,3.1-3.1,5.3-4.1c2.2-1,4.7-1.4,7.5-1.4c3.3,0,6.1,0.5,8.3,1.5c2.2,1,4,2.4,5.1,4.2
				c1.2,1.8,1.8,3.7,1.8,5.9h-7.7c-0.1-1.3-0.5-2.4-1.2-3.2c-0.7-0.8-1.5-1.4-2.6-1.7c-1.1-0.3-2.2-0.5-3.6-0.5c-1,0-2,0.1-2.8,0.3
				c-0.8,0.2-1.5,0.6-2.1,1c-0.6,0.4-1,0.9-1.3,1.5s-0.5,1.2-0.5,1.9c0,1.1,0.4,2,1.1,2.7s2.1,1.3,4.2,1.7l6.6,1.3
				c2.3,0.5,4.2,1.1,5.6,2s2.4,1.9,3.1,3s1.2,2.3,1.4,3.5s0.3,2.3,0.3,3.2c0,2.1-0.6,3.9-1.9,5.6c-1.3,1.6-3.1,3-5.4,3.9
				C153.8,104.2,151.1,104.8,148,104.8z"/>
			<path class="st8" d="M186,82.2h-6.1l0.1,14.6c0,0.7,0.1,1.2,0.3,1.5s0.4,0.5,0.8,0.6c0.4,0.1,0.8,0.1,1.4,0.1h3.7v4.8
				c-0.4,0.2-0.9,0.3-1.7,0.4s-1.8,0.2-3.1,0.2c-2.4,0-4.3-0.3-5.6-0.9s-2.2-1.5-2.7-2.6s-0.8-2.4-0.8-3.9V82.2h-4.4v-5.4h4.7
				l1.9-8.2h5.5v8.2h6.1L186,82.2L186,82.2z"/>
			<path class="st8" d="M201.8,104.8c-1.3,0-2.5-0.2-3.7-0.6s-2.3-1-3.3-1.7s-1.8-1.7-2.4-2.8c-0.6-1.1-0.9-2.4-0.9-3.8v-19h7.7
				v17.9c0,1.3,0.4,2.3,1.2,3.1c0.8,0.8,2,1.2,3.6,1.2c1.5,0,2.7-0.4,3.6-1.2c0.9-0.8,1.3-1.9,1.3-3.3V76.8h7.6v27.3h-5.8l-0.9-5.4
				c-0.3,1.6-0.9,2.8-1.8,3.7c-0.9,0.9-1.9,1.4-3,1.8C204,104.6,202.9,104.8,201.8,104.8z"/>
			<path class="st8" d="M233,104.8c-3.7,0-6.5-1.3-8.6-3.8c-2-2.5-3.1-6.1-3.1-10.6c0-2.9,0.4-5.3,1.2-7.4s2.1-3.7,3.7-4.9
				c1.6-1.2,3.6-1.7,5.9-1.7c1,0,1.9,0.1,2.8,0.3c0.9,0.2,1.6,0.5,2.3,0.9s1.3,0.8,1.9,1.3c0.5,0.5,1,1.1,1.3,1.6V64.9h7.7v39.3
				h-5.6l-0.9-5.6c-0.2,0.8-0.6,1.5-1,2.2s-1,1.4-1.7,2s-1.5,1.1-2.5,1.4C235.5,104.6,234.3,104.8,233,104.8z M234.7,99.2
				c1.9,0,3.4-0.7,4.3-2c1-1.4,1.4-3.6,1.4-6.9c0-1.9-0.2-3.4-0.7-4.7c-0.4-1.2-1.1-2.2-1.9-2.8c-0.8-0.6-1.9-0.9-3.2-0.9
				c-1.7,0-3.1,0.6-4.2,1.9s-1.7,3.4-1.7,6.4c0,3.1,0.5,5.3,1.6,6.7C231.5,98.4,232.9,99.2,234.7,99.2z"/>
			<path class="st8" d="M262.7,65.9v7h-7.5v-7H262.7z M262.6,76.8v27.3h-7.4V76.8H262.6z"/>
			<path class="st8" d="M281.3,104.8c-2.7,0-5-0.6-7-1.7s-3.5-2.8-4.6-4.9s-1.6-4.6-1.6-7.5s0.5-5.4,1.6-7.5c1.1-2.2,2.6-3.8,4.6-5
				s4.3-1.8,7-1.8c2.7,0,5,0.6,7,1.8c2,1.2,3.5,2.8,4.6,5c1.1,2.1,1.6,4.7,1.6,7.6c0,2.8-0.5,5.2-1.6,7.3c-1,2.1-2.6,3.8-4.5,5
				C286.5,104.2,284.1,104.8,281.3,104.8z M281.4,98.9c1.4,0,2.5-0.4,3.3-1.2c0.8-0.8,1.4-1.8,1.8-3.1s0.6-2.7,0.6-4.2
				c0-1.4-0.2-2.8-0.5-4.1c-0.3-1.3-0.9-2.3-1.8-3.1c-0.8-0.8-2-1.2-3.4-1.2s-2.5,0.4-3.3,1.1c-0.8,0.8-1.5,1.8-1.8,3
				c-0.4,1.3-0.6,2.7-0.6,4.2c0,1.4,0.2,2.8,0.5,4.1c0.4,1.3,0.9,2.4,1.8,3.2C278.8,98.6,279.9,98.9,281.4,98.9z"/>
		</g>
	</g>
</g>
</svg>
